<?xml version="1.0" standalone="no"?>
<!DOCTYPE svg PUBLIC "-//W3C//DTD SVG 20010904//EN"
 "http://www.w3.org/TR/2001/REC-SVG-20010904/DTD/svg10.dtd">
<svg version="1.0" xmlns="http://www.w3.org/2000/svg"
 width="513.000000pt" height="513.000000pt" viewBox="0 0 513.000000 513.000000"
 preserveAspectRatio="xMidYMid meet">
<metadata>
Created by potrace 1.14, written by Peter Selinger 2001-2017
</metadata>
<g transform="translate(0.000000,513.000000) scale(0.100000,-0.100000)"
fill="#000000" stroke="none">
<path d="M1515 4843 c-371 -49 -683 -196 -938 -442 -249 -240 -396 -503 -473
-841 -40 -177 -46 -350 -41 -1185 4 -730 5 -776 25 -882 109 -576 491 -1041
1029 -1253 l101 -40 1406 0 1405 0 73 26 c459 165 828 542 992 1013 l36 103 0
1148 0 1148 -36 103 c-172 495 -564 875 -1065 1034 -46 14 -127 36 -179 48
-94 21 -105 22 -1200 23 -608 1 -1118 0 -1135 -3z m599 -1023 c116 -25 232
-67 299 -110 l47 -30 0 -181 c0 -99 -3 -179 -7 -177 -5 2 -39 19 -78 39 -93
49 -225 94 -325 113 -107 21 -314 21 -399 1 -210 -50 -354 -201 -425 -447 -46
-158 -59 -281 -59 -543 0 -352 31 -543 119 -722 77 -159 177 -238 333 -265
137 -23 287 18 371 102 47 47 102 155 125 245 19 76 35 226 35 333 l0 82 -245
0 -245 0 2 178 3 177 470 0 470 0 -1 -290 c-1 -405 -27 -557 -132 -760 -38
-72 -66 -109 -142 -186 -82 -82 -108 -102 -190 -142 -157 -77 -222 -91 -450
-91 -185 0 -200 1 -283 27 -160 50 -269 118 -383 240 -210 226 -324 603 -324
1072 0 789 334 1268 945 1355 100 15 357 3 469 -20z m1831 -729 c44 -12 118
-40 165 -63 70 -34 102 -58 181 -137 83 -84 102 -109 147 -201 104 -212 142
-462 111 -737 -39 -352 -197 -607 -454 -734 -226 -110 -524 -112 -751 -4 -302
145 -467 465 -467 910 0 294 63 513 197 692 114 151 278 251 472 288 107 20
292 13 399 -14z"/>
<path d="M3597 2746 c-162 -60 -240 -227 -253 -546 -16 -372 63 -606 229 -681
73 -33 220 -34 288 -3 96 45 158 134 201 289 19 72 22 105 22 315 1 192 -2
249 -17 310 -35 150 -99 250 -191 298 -42 21 -67 26 -146 29 -64 2 -107 -1
-133 -11z"/>
</g>
</svg>
